<?xml version="1.0" standalone="no"?>
<!DOCTYPE svg PUBLIC "-//W3C//DTD SVG 20010904//EN"
 "http://www.w3.org/TR/2001/REC-SVG-20010904/DTD/svg10.dtd">
<svg version="1.0" xmlns="http://www.w3.org/2000/svg"
 width="70.000000pt" height="70.000000pt" viewBox="0 0 70.000000 70.000000"
 preserveAspectRatio="xMidYMid meet">
<metadata>
Created by potrace 1.14, written by Peter Selinger 2001-2017
</metadata>
<g transform="translate(0.000000,70.000000) scale(0.100000,-0.100000)"
fill="#000000" stroke="none">
<path d="M273 688 c-4 -7 -7 -25 -8 -41 0 -40 -179 -221 -211 -213 -25 7 -54
-16 -54 -41 0 -18 176 -201 205 -212 31 -13 57 6 53 39 -2 21 5 37 27 60 16
16 32 30 37 30 5 0 78 -70 163 -155 86 -86 163 -155 173 -155 23 0 42 19 42
41 0 10 -70 88 -155 174 -85 85 -155 159 -155 164 0 15 62 71 72 65 18 -11 56
6 61 28 5 17 -14 41 -98 125 -100 100 -133 120 -152 91z m77 -285 c0 -6 -49
-53 -55 -53 -3 0 -32 27 -65 61 l-60 60 31 29 32 29 58 -60 c33 -33 59 -63 59
-66z"/>
</g>
</svg>
